<svg version="1.1" id="Layer_1" xmlns="http://www.w3.org/2000/svg" xmlns:xlink="http://www.w3.org/1999/xlink" x="0px" y="0px"
	 width="100%" viewBox="0 0 336 289" enable-background="new 0 0 336 289" xml:space="preserve">
<path fill="#0E1E31" opacity="1.000000" stroke="none" 
	d="
M198.000000,290.000000 
	C132.000031,290.000000 66.500061,290.000000 1.000070,290.000000 
	C1.000047,193.666748 1.000047,97.333488 1.000023,1.000174 
	C112.999870,1.000116 224.999741,1.000116 336.999695,1.000058 
	C336.999817,97.333160 336.999817,193.666321 336.999908,289.999756 
	C290.833344,290.000000 244.666672,290.000000 198.000000,290.000000 
M151.708755,164.772400 
	C152.515396,167.456909 153.322037,170.141418 154.442474,173.870255 
	C155.183105,171.259308 155.666901,169.723740 156.053604,168.164093 
	C159.697372,153.467728 163.278519,138.755600 166.983673,124.074776 
	C168.146103,119.468903 171.269302,117.348564 174.410324,119.211311 
	C176.056274,120.187424 177.356186,122.303986 178.076843,124.187012 
	C181.214325,132.385040 184.081619,140.686493 187.373840,149.861023 
	C188.455414,146.864883 189.227478,144.874603 189.896149,142.850159 
	C194.958130,127.524887 199.996628,112.191864 205.050568,96.863937 
	C206.057632,93.809669 206.997986,90.606232 211.137817,90.709099 
	C215.350220,90.813759 215.933548,94.235352 216.800735,97.255676 
	C218.270050,102.373016 219.616241,107.525566 221.041962,112.655594 
	C224.019791,123.370483 227.015717,134.080338 230.058304,144.986160 
	C250.406647,144.986160 270.385986,145.045456 290.363098,144.863007 
	C291.813568,144.849777 293.602112,143.365952 294.636200,142.084045 
	C307.880310,125.665733 313.377747,106.951538 310.016479,86.070915 
	C305.607819,58.683647 290.410980,39.138649 264.578369,29.269314 
	C237.813278,19.043715 212.666595,23.496998 190.950714,42.479198 
	C183.227661,49.230057 176.893768,57.570118 169.476074,65.676117 
	C162.233566,58.266521 156.521362,52.213814 150.585892,46.388580 
	C131.450089,27.608154 108.617538,20.258869 82.385788,26.139612 
	C30.792904,37.705914 8.835085,99.066910 41.370384,141.041656 
	C43.610340,143.931503 45.965919,145.150742 49.732765,145.099258 
	C66.389862,144.871719 83.051834,145.000870 99.712036,145.000900 
	C103.360077,145.000916 107.008125,145.000900 110.827194,145.000900 
	C111.271545,143.248093 111.708313,141.829468 111.986588,140.380371 
	C114.717125,126.161804 117.410553,111.936119 120.140854,97.717506 
	C120.778572,94.396423 121.336060,90.896919 125.822136,90.739616 
	C130.064987,90.590820 130.861191,93.928688 131.756454,96.967918 
	C138.338837,119.314194 144.876770,141.673569 151.708755,164.772400 
M101.497253,155.487030 
	C86.514748,155.487030 71.532242,155.487030 57.219238,155.487030 
	C94.582481,193.058792 131.747589,230.431305 168.638580,267.528168 
	C205.564102,230.430145 242.734253,193.086334 280.158508,155.487244 
	C278.563995,155.487244 276.788574,155.487259 275.013153,155.487244 
	C261.188995,155.487122 247.364822,155.487381 233.540665,155.486771 
	C221.975189,155.486267 221.991882,155.481171 218.862488,144.204605 
	C216.194839,134.591812 213.482925,124.991302 210.790588,115.385368 
	C204.616028,131.371048 199.384415,147.308990 194.084030,163.224045 
	C192.916092,166.730942 192.726517,171.462738 187.662811,171.578598 
	C182.604462,171.694290 182.189255,167.050293 180.907318,163.543793 
	C178.516953,157.005341 176.160904,150.454330 173.337387,142.657043 
	C172.571030,145.207367 172.196335,146.287857 171.921753,147.393234 
	C168.272018,162.085037 164.651489,176.784119 160.986038,191.471970 
	C160.113205,194.969498 159.851929,199.346130 155.063812,199.575485 
	C150.202133,199.808350 149.654037,195.528336 148.623627,192.019226 
	C142.109299,169.833984 135.586090,147.651337 129.054749,125.471107 
	C128.581009,123.862320 128.019730,122.279312 127.499153,120.684319 
	C124.538536,130.315765 122.656982,139.724838 120.935974,149.163193 
	C120.157593,153.432022 117.965691,155.638687 113.486801,155.494415 
	C109.826584,155.376511 106.159195,155.481155 101.497253,155.487030 
z"/>
<path fill="#D03B53" opacity="1.000000" stroke="none" 
	d="
M151.568726,164.400604 
	C144.876770,141.673569 138.338837,119.314194 131.756454,96.967918 
	C130.861191,93.928688 130.064987,90.590820 125.822136,90.739616 
	C121.336060,90.896919 120.778572,94.396423 120.140854,97.717506 
	C117.410553,111.936119 114.717125,126.161804 111.986588,140.380371 
	C111.708313,141.829468 111.271545,143.248093 110.827194,145.000900 
	C107.008125,145.000900 103.360077,145.000916 99.712036,145.000900 
	C83.051834,145.000870 66.389862,144.871719 49.732765,145.099258 
	C45.965919,145.150742 43.610340,143.931503 41.370384,141.041656 
	C8.835085,99.066910 30.792904,37.705914 82.385788,26.139612 
	C108.617538,20.258869 131.450089,27.608154 150.585892,46.388580 
	C156.521362,52.213814 162.233566,58.266521 169.476074,65.676117 
	C176.893768,57.570118 183.227661,49.230057 190.950714,42.479198 
	C212.666595,23.496998 237.813278,19.043715 264.578369,29.269314 
	C290.410980,39.138649 305.607819,58.683647 310.016479,86.070915 
	C313.377747,106.951538 307.880310,125.665733 294.636200,142.084045 
	C293.602112,143.365952 291.813568,144.849777 290.363098,144.863007 
	C270.385986,145.045456 250.406647,144.986160 230.058304,144.986160 
	C227.015717,134.080338 224.019791,123.370483 221.041962,112.655594 
	C219.616241,107.525566 218.270050,102.373016 216.800735,97.255676 
	C215.933548,94.235352 215.350220,90.813759 211.137817,90.709099 
	C206.997986,90.606232 206.057632,93.809669 205.050568,96.863937 
	C199.996628,112.191864 194.958130,127.524887 189.896149,142.850159 
	C189.227478,144.874603 188.455414,146.864883 187.373840,149.861023 
	C184.081619,140.686493 181.214325,132.385040 178.076843,124.187012 
	C177.356186,122.303986 176.056274,120.187424 174.410324,119.211311 
	C171.269302,117.348564 168.146103,119.468903 166.983673,124.074776 
	C163.278519,138.755600 159.697372,153.467728 156.053604,168.164093 
	C155.666901,169.723740 155.183105,171.259308 154.442474,173.870255 
	C153.322037,170.141418 152.515396,167.456909 151.568726,164.400604 
z"/>
<path fill="#CF3B53" opacity="1.000000" stroke="none" 
	d="
M101.996124,155.487076 
	C106.159195,155.481155 109.826584,155.376511 113.486801,155.494415 
	C117.965691,155.638687 120.157593,153.432022 120.935974,149.163193 
	C122.656982,139.724838 124.538536,130.315765 127.499153,120.684319 
	C128.019730,122.279312 128.581009,123.862320 129.054749,125.471107 
	C135.586090,147.651337 142.109299,169.833984 148.623627,192.019226 
	C149.654037,195.528336 150.202133,199.808350 155.063812,199.575485 
	C159.851929,199.346130 160.113205,194.969498 160.986038,191.471970 
	C164.651489,176.784119 168.272018,162.085037 171.921753,147.393234 
	C172.196335,146.287857 172.571030,145.207367 173.337387,142.657043 
	C176.160904,150.454330 178.516953,157.005341 180.907318,163.543793 
	C182.189255,167.050293 182.604462,171.694290 187.662811,171.578598 
	C192.726517,171.462738 192.916092,166.730942 194.084030,163.224045 
	C199.384415,147.308990 204.616028,131.371048 210.790588,115.385368 
	C213.482925,124.991302 216.194839,134.591812 218.862488,144.204605 
	C221.991882,155.481171 221.975189,155.486267 233.540665,155.486771 
	C247.364822,155.487381 261.188995,155.487122 275.013153,155.487244 
	C276.788574,155.487259 278.563995,155.487244 280.158508,155.487244 
	C242.734253,193.086334 205.564102,230.430145 168.638580,267.528168 
	C131.747589,230.431305 94.582481,193.058792 57.219238,155.487030 
	C71.532242,155.487030 86.514748,155.487030 101.996124,155.487076 
z"/>
</svg>